<svg xmlns="http://www.w3.org/2000/svg" xmlns:xlink="http://www.w3.org/1999/xlink" width="500" zoomAndPan="magnify" viewBox="0 0 375 74.999997" height="100" preserveAspectRatio="xMidYMid meet" version="1.0"><defs><g/></defs><g fill="#fbfaf9" fill-opacity="1"><g transform="translate(98.99505, 60.979355)"><g><path d="M 39.839844 -7.316406 L 28.28125 -49.183594 L 15.921875 -49.183594 C 16.476562 -47.402344 16.355469 -46.542969 15.921875 -44.820312 L 5.472656 -6.640625 C 4.855469 -4.363281 4.550781 -3.011719 3.074219 0 L 5.472656 0 C 5.65625 -2.890625 6.210938 -4.363281 6.824219 -6.703125 L 9.777344 -17.582031 L 26.007812 -17.582031 L 28.835938 -7.316406 C 29.632812 -4.363281 30.0625 -3.074219 30.1875 0 L 42.730469 0 C 41.375 -2.460938 40.699219 -4.058594 39.839844 -7.316406 Z M 10.144531 -18.875 L 17.828125 -47.03125 L 25.636719 -18.875 Z M 10.144531 -18.875 "/></g></g></g><g fill="#fbfaf9" fill-opacity="1"><g transform="translate(141.721875, 60.979355)"><g><path d="M 44.328125 -6.578125 L 25.453125 -31.109375 L 36.949219 -42.976562 C 39.164062 -45.1875 40.761719 -46.789062 43.835938 -49.183594 L 40.640625 -49.183594 C 39.039062 -46.789062 37.566406 -45.25 35.105469 -42.789062 L 15.308594 -22.5625 L 15.308594 -36.027344 C 15.308594 -41.746094 15.492188 -44.511719 15.984375 -49.183594 L 4.304688 -49.183594 C 4.796875 -44.511719 4.980469 -41.746094 4.980469 -36.027344 L 4.980469 -13.15625 C 4.980469 -7.4375 4.796875 -4.671875 4.304688 0 L 15.984375 0 C 15.492188 -4.671875 15.308594 -7.4375 15.308594 -13.15625 L 15.308594 -20.71875 L 18.015625 -23.484375 L 31.234375 -6.578125 C 33.570312 -3.441406 34.429688 -2.398438 35.597656 0 L 50.84375 0 C 47.832031 -2.335938 46.417969 -3.875 44.328125 -6.578125 Z M 44.328125 -6.578125 "/></g></g></g><g fill="#fbfaf9" fill-opacity="1"><g transform="translate(191.334214, 60.979355)"><g><path d="M 4.304688 0 L 6.761719 0 C 6.269531 -4.671875 6.085938 -7.4375 6.085938 -13.15625 L 6.085938 -46.417969 L 6.332031 -46.355469 L 32.03125 0 L 44.390625 0 C 43.960938 -4.671875 43.773438 -7.4375 43.773438 -13.15625 L 43.773438 -36.027344 C 43.773438 -41.746094 43.960938 -44.511719 44.390625 -49.183594 L 41.992188 -49.183594 C 42.484375 -44.511719 42.605469 -41.746094 42.605469 -36.027344 L 42.605469 -2.765625 L 42.359375 -2.828125 L 16.722656 -49.183594 L 4.304688 -49.183594 C 4.796875 -44.511719 4.980469 -41.746094 4.980469 -36.027344 L 4.980469 -13.15625 C 4.980469 -7.4375 4.796875 -4.671875 4.304688 0 Z M 4.304688 0 "/></g></g></g><g fill="#fbfaf9" fill-opacity="1"><g transform="translate(236.9505, 60.979355)"><g><path d="M 2.460938 -14.261719 C 7.871094 -2.828125 15.308594 1.230469 25.144531 1.230469 C 33.199219 1.230469 40.085938 -2.890625 40.085938 -11.621094 C 40.085938 -19.921875 34.304688 -23.917969 22.6875 -31.664062 C 13.832031 -37.503906 11.128906 -39.410156 11.128906 -43.28125 C 11.128906 -46.601562 14.019531 -49.125 18.875 -49.125 C 26.867188 -49.125 30.003906 -42.300781 31.785156 -35.535156 L 39.039062 -38.546875 C 33.507812 -46.972656 27.296875 -50.414062 19.488281 -50.414062 C 11.679688 -50.414062 5.347656 -46.726562 5.347656 -39.53125 C 5.347656 -32.890625 9.40625 -29.511719 19.429688 -22.6875 C 29.328125 -15.738281 34.367188 -12.480469 34.367188 -7.746094 C 34.367188 -2.890625 31.046875 -0.0625 25.882812 -0.0625 C 17.644531 -0.0625 11.742188 -7.871094 9.777344 -18.320312 Z M 2.460938 -14.261719 "/></g></g></g><g fill="#dec2ba" fill-opacity="1"><g transform="translate(126.968063, 39.022237)"><g><path d="M 3.5625 -1.03125 L 1.25 -1.03125 L 0.8125 0 L 0 0 L 2.03125 -4.59375 L 2.828125 -4.59375 L 4.84375 0 L 4.015625 0 Z M 3.28125 -1.71875 L 2.40625 -3.765625 L 1.546875 -1.71875 Z M 3.28125 -1.71875 "/></g></g></g><g fill="#dec2ba" fill-opacity="1"><g transform="translate(137.064004, 39.022237)"><g><path d="M 4.59375 0 L 3.828125 0 L 1.375 -3.296875 L 1.375 0 L 0.609375 0 L 0.609375 -4.59375 L 1.359375 -4.59375 L 3.828125 -1.296875 L 3.828125 -4.59375 L 4.59375 -4.59375 Z M 4.59375 0 "/></g></g></g><g fill="#dec2ba" fill-opacity="1"><g transform="translate(147.514154, 39.022237)"><g><path d="M 3.5625 -1.03125 L 1.25 -1.03125 L 0.8125 0 L 0 0 L 2.03125 -4.59375 L 2.828125 -4.59375 L 4.84375 0 L 4.015625 0 Z M 3.28125 -1.71875 L 2.40625 -3.765625 L 1.546875 -1.71875 Z M 3.28125 -1.71875 "/></g></g></g><g fill="#dec2ba" fill-opacity="1"><g transform="translate(157.610095, 39.022237)"><g><path d="M 4.59375 0 L 3.828125 0 L 1.375 -3.296875 L 1.375 0 L 0.609375 0 L 0.609375 -4.59375 L 1.359375 -4.59375 L 3.828125 -1.296875 L 3.828125 -4.59375 L 4.59375 -4.59375 Z M 4.59375 0 "/></g></g></g><g fill="#dec2ba" fill-opacity="1"><g transform="translate(168.060246, 39.022237)"><g><path d="M 0.609375 -4.59375 L 2.484375 -4.59375 C 3.171875 -4.59375 3.738281 -4.375 4.1875 -3.9375 C 4.632812 -3.507812 4.859375 -2.960938 4.859375 -2.296875 C 4.859375 -1.628906 4.632812 -1.078125 4.1875 -0.640625 C 3.738281 -0.210938 3.164062 0 2.46875 0 L 0.609375 0 Z M 1.375 -3.890625 L 1.375 -0.703125 L 2.5 -0.703125 C 2.957031 -0.703125 3.332031 -0.847656 3.625 -1.140625 C 3.925781 -1.441406 4.078125 -1.820312 4.078125 -2.28125 C 4.078125 -2.75 3.921875 -3.132812 3.609375 -3.4375 C 3.304688 -3.738281 2.925781 -3.890625 2.46875 -3.890625 Z M 1.375 -3.890625 "/></g></g></g><g fill="#dec2ba" fill-opacity="1"><g transform="translate(178.398887, 39.022237)"><g><path d="M 3.671875 0 L 2.15625 -2.03125 L 1.375 -1.171875 L 1.375 0 L 0.609375 0 L 0.609375 -4.59375 L 1.375 -4.59375 L 1.375 -2.21875 L 3.5625 -4.59375 L 4.484375 -4.59375 L 2.703125 -2.625 L 4.59375 0 Z M 3.671875 0 "/></g></g></g><g fill="#dec2ba" fill-opacity="1"><g transform="translate(188.363642, 39.022237)"><g><path d="M 4.515625 -4.59375 L 4.515625 -1.90625 C 4.515625 -1.300781 4.332031 -0.828125 3.96875 -0.484375 C 3.613281 -0.140625 3.125 0.03125 2.5 0.03125 C 1.882812 0.03125 1.398438 -0.140625 1.046875 -0.484375 C 0.691406 -0.828125 0.515625 -1.300781 0.515625 -1.90625 L 0.515625 -4.59375 L 1.28125 -4.59375 L 1.28125 -1.90625 C 1.28125 -1.519531 1.390625 -1.210938 1.609375 -0.984375 C 1.835938 -0.765625 2.140625 -0.65625 2.515625 -0.65625 C 2.890625 -0.65625 3.1875 -0.765625 3.40625 -0.984375 C 3.625 -1.203125 3.734375 -1.507812 3.734375 -1.90625 L 3.734375 -4.59375 Z M 4.515625 -4.59375 "/></g></g></g><g fill="#dec2ba" fill-opacity="1"><g transform="translate(198.630128, 39.022237)"><g><path d="M 5.453125 0 L 4.75 0 L 4.734375 -3.4375 L 3.28125 -0.484375 L 2.78125 -0.484375 L 1.328125 -3.4375 L 1.328125 0 L 0.609375 0 L 0.609375 -4.59375 L 1.515625 -4.59375 L 3.03125 -1.546875 L 4.546875 -4.59375 L 5.453125 -4.59375 Z M 5.453125 0 "/></g></g></g><g fill="#dec2ba" fill-opacity="1"><g transform="translate(209.952684, 39.022237)"><g><path d="M 3.5625 -1.03125 L 1.25 -1.03125 L 0.8125 0 L 0 0 L 2.03125 -4.59375 L 2.828125 -4.59375 L 4.84375 0 L 4.015625 0 Z M 3.28125 -1.71875 L 2.40625 -3.765625 L 1.546875 -1.71875 Z M 3.28125 -1.71875 "/></g></g></g><g fill="#dec2ba" fill-opacity="1"><g transform="translate(220.048621, 39.022237)"><g><path d="M 3.515625 0 L 2.671875 -1.390625 C 2.628906 -1.390625 2.5625 -1.390625 2.46875 -1.390625 L 1.375 -1.390625 L 1.375 0 L 0.609375 0 L 0.609375 -4.59375 L 2.46875 -4.59375 C 3.050781 -4.59375 3.503906 -4.453125 3.828125 -4.171875 C 4.148438 -3.898438 4.3125 -3.519531 4.3125 -3.03125 C 4.3125 -2.65625 4.226562 -2.34375 4.0625 -2.09375 C 3.90625 -1.84375 3.671875 -1.65625 3.359375 -1.53125 L 4.390625 0 Z M 1.375 -2.078125 L 2.46875 -2.078125 C 3.207031 -2.078125 3.578125 -2.382812 3.578125 -3 C 3.578125 -3.59375 3.207031 -3.890625 2.46875 -3.890625 L 1.375 -3.890625 Z M 1.375 -2.078125 "/></g></g></g><g fill="#dec2ba" fill-opacity="1"><g transform="translate(230.046169, 39.022237)"><g/></g></g><g fill="#dec2ba" fill-opacity="1"><g transform="translate(236.993595, 39.022237)"><g><path d="M 4.59375 0 L 3.828125 0 L 1.375 -3.296875 L 1.375 0 L 0.609375 0 L 0.609375 -4.59375 L 1.359375 -4.59375 L 3.828125 -1.296875 L 3.828125 -4.59375 L 4.59375 -4.59375 Z M 4.59375 0 "/></g></g></g><g fill="#dec2ba" fill-opacity="1"><g transform="translate(247.443749, 39.022237)"><g><path d="M 2.109375 -4.625 C 2.703125 -4.625 3.238281 -4.46875 3.71875 -4.15625 L 3.40625 -3.46875 C 2.9375 -3.75 2.484375 -3.890625 2.046875 -3.890625 C 1.816406 -3.890625 1.632812 -3.847656 1.5 -3.765625 C 1.375 -3.691406 1.3125 -3.578125 1.3125 -3.421875 C 1.3125 -3.265625 1.367188 -3.132812 1.484375 -3.03125 C 1.609375 -2.925781 1.757812 -2.847656 1.9375 -2.796875 C 2.125 -2.742188 2.328125 -2.675781 2.546875 -2.59375 C 2.765625 -2.519531 2.960938 -2.441406 3.140625 -2.359375 C 3.328125 -2.273438 3.476562 -2.140625 3.59375 -1.953125 C 3.71875 -1.773438 3.78125 -1.554688 3.78125 -1.296875 C 3.78125 -0.898438 3.617188 -0.578125 3.296875 -0.328125 C 2.972656 -0.0859375 2.554688 0.03125 2.046875 0.03125 C 1.691406 0.03125 1.347656 -0.0351562 1.015625 -0.171875 C 0.691406 -0.304688 0.410156 -0.484375 0.171875 -0.703125 L 0.5 -1.375 C 0.738281 -1.15625 0.992188 -0.988281 1.265625 -0.875 C 1.546875 -0.757812 1.8125 -0.703125 2.0625 -0.703125 C 2.332031 -0.703125 2.539062 -0.75 2.6875 -0.84375 C 2.84375 -0.945312 2.921875 -1.085938 2.921875 -1.265625 C 2.921875 -1.421875 2.859375 -1.550781 2.734375 -1.65625 C 2.609375 -1.757812 2.453125 -1.835938 2.265625 -1.890625 C 2.085938 -1.941406 1.890625 -2.003906 1.671875 -2.078125 C 1.460938 -2.148438 1.265625 -2.222656 1.078125 -2.296875 C 0.898438 -2.378906 0.75 -2.507812 0.625 -2.6875 C 0.5 -2.875 0.4375 -3.09375 0.4375 -3.34375 C 0.4375 -3.738281 0.585938 -4.050781 0.890625 -4.28125 C 1.203125 -4.507812 1.609375 -4.625 2.109375 -4.625 Z M 2.109375 -4.625 "/></g></g></g></svg>